<?xml version="1.0" encoding="utf-8"?>
<!-- Generator: Adobe Illustrator 24.0.1, SVG Export Plug-In . SVG Version: 6.00 Build 0)  -->
<svg version="1.1" id="Layer_1" xmlns="http://www.w3.org/2000/svg" xmlns:xlink="http://www.w3.org/1999/xlink" x="0px" y="0px"
	 viewBox="0 0 827 894" style="enable-background:new 0 0 827 894;" xml:space="preserve">
<style type="text/css">
	.st0{clip-path:url(#SVGID_2_);}
	.st1{opacity:0.2;fill:#FF6903;enable-background:new    ;}
	.st2{opacity:0.2;fill:#E55C00;enable-background:new    ;}
</style>
<g>
	<g>
		<defs>
			<rect id="SVGID_1_" width="826.1" height="893.3"/>
		</defs>
		<clipPath id="SVGID_2_">
			<use xlink:href="#SVGID_1_"  style="overflow:visible;"/>
		</clipPath>
		<g class="st0">
			<path class="st1" d="M814.2,438.1v207.2c0,17.4-9.3,33.5-24.3,42.2L610.4,791c-15.1,8.7-33.6,8.7-48.7,0L382.3,687.4
				c-15.1-8.7-24.3-24.8-24.3-42.2V438.1c0-17.4,9.3-33.5,24.3-42.1l179.4-103.6c15.1-8.7,33.6-8.7,48.7,0L789.8,396
				C804.9,404.6,814.2,420.7,814.2,438.1z"/>
			<path class="st1" d="M358,456.1V248.9c0-17.4,9.3-33.5,24.3-42.1l179.4-103.6c15.1-8.7,33.6-8.7,48.7,0l179.4,103.6
				c15.1,8.7,24.3,24.8,24.3,42.1v207.2c0,17.4-9.3,33.5-24.3,42.1L610.4,601.8c-15.1,8.7-33.6,8.7-48.7,0L382.3,498.2
				C367.3,489.5,358,473.5,358,456.1z"/>
			<path class="st1" d="M434.6,889.7l125.1-72.2c8.4-4.9,13.6-13.8,13.6-23.6V649.4c0-9.7-5.2-18.7-13.6-23.6l-125.1-72.2
				c-8.4-4.9-18.8-4.9-27.2,0l-125.1,72.2c-8.4,4.9-13.6,13.9-13.6,23.6v144.5c0,9.7,5.2,18.7,13.6,23.6l125.1,72.2
				C415.8,894.5,426.2,894.5,434.6,889.7z"/>
			<path class="st1" d="M296.7,718l125.1-72.2c8.4-4.9,13.6-13.8,13.6-23.6V477.7c0-9.7-5.2-18.7-13.6-23.6l-125.1-72.2
				c-8.4-4.9-18.8-4.9-27.2,0l-125.1,72.2c-8.4,4.9-13.6,13.9-13.6,23.6v144.5c0,9.7,5.2,18.7,13.6,23.6L269.5,718
				C277.9,722.8,288.3,722.8,296.7,718z"/>
			<path class="st1" d="M269.5,469.8l125.1-72.2c8.4-4.9,13.6-13.9,13.6-23.6V229.5c0-9.7-5.2-18.7-13.6-23.6l-125.1-72.2
				c-8.4-4.9-18.8-4.9-27.2,0l-125.1,72.2c-8.4,4.9-13.6,13.9-13.6,23.6V374c0,9.7,5.2,18.7,13.6,23.6l125.1,72.2
				C250.7,474.6,261,474.6,269.5,469.8z"/>
			<path class="st1" d="M514.5,760.1l94.8-54.7c6.4-3.7,10.3-10.5,10.3-17.8V578.1c0-7.4-3.9-14.2-10.3-17.8l-94.8-54.7
				c-6.4-3.7-14.2-3.7-20.6,0l-94.8,54.7c-6.4,3.7-10.3,10.5-10.3,17.8v109.4c0,7.4,3.9,14.2,10.3,17.8l94.8,54.7
				C500.3,763.8,508.2,763.8,514.5,760.1z"/>
			<path class="st1" d="M514.5,370.5l94.8-54.7c6.4-3.7,10.3-10.5,10.3-17.9V188.5c0-7.4-3.9-14.2-10.3-17.9L514.5,116
				c-6.4-3.7-14.2-3.7-20.6,0l-94.8,54.7c-6.4,3.7-10.3,10.5-10.3,17.9V298c0,7.4,3.9,14.2,10.3,17.9l94.8,54.7
				C500.3,374.2,508.2,374.2,514.5,370.5z"/>
			<path class="st1" d="M298.8,241.2l70.7-40.8c4.8-2.8,7.7-7.8,7.7-13.3v-81.6c0-5.5-2.9-10.6-7.7-13.3l-70.7-40.8
				c-4.8-2.8-10.6-2.8-15.4,0l-70.7,40.8c-4.8,2.8-7.7,7.8-7.7,13.3v81.6c0,5.5,2.9,10.6,7.7,13.3l70.7,40.8
				C288.2,243.9,294.1,243.9,298.8,241.2z"/>
			<path class="st1" d="M542.3,473.1v207.2c0,17.4-9.3,33.5-24.3,42.1L338.6,826c-15.1,8.7-33.6,8.7-48.7,0L110.5,722.4
				c-15.1-8.7-24.3-24.8-24.3-42.1V473.1c0-17.4,9.3-33.5,24.3-42.1l179.4-103.6c15.1-8.7,33.6-8.7,48.7,0L518,431
				C533,439.6,542.3,455.7,542.3,473.1z"/>
			<path class="st2" d="M220.4,290.4L21.6,405.1C8.2,412.9,0,427.1,0,442.6V672c0,15.5,8.2,29.7,21.6,37.4l198.7,114.7
				c13.4,7.7,29.9,7.7,43.2,0l198.7-114.7c13.4-7.7,21.6-22,21.6-37.4V442.6c0-15.5-8.2-29.7-21.6-37.4L263.6,290.4
				C250.2,282.7,233.7,282.7,220.4,290.4L220.4,290.4z"/>
			<path class="st1" d="M305.9,136.3l-125.1,72.2c-8.4,4.9-13.6,13.9-13.6,23.6v144.5c0,9.7,5.2,18.7,13.6,23.6l125.1,72.2
				c8.4,4.9,18.8,4.9,27.2,0l125.1-72.2c8.4-4.9,13.6-13.9,13.6-23.6V232.1c0-9.7-5.2-18.7-13.6-23.6l-125.1-72.2
				C324.7,131.4,314.3,131.4,305.9,136.3z"/>
			<path class="st2" d="M166.5,143.2L41.4,215.4c-8.4,4.9-13.6,13.9-13.6,23.6v144.5c0,9.7,5.2,18.7,13.6,23.6l125.1,72.2
				c8.4,4.9,18.8,4.9,27.2,0l125.1-72.2c8.4-4.9,13.6-13.9,13.6-23.6V239c0-9.7-5.2-18.7-13.6-23.6l-125.1-72.2
				C185.3,138.4,174.9,138.4,166.5,143.2z"/>
			<path class="st1" d="M437.4,292.6l-94.8,54.7c-6.4,3.7-10.3,10.5-10.3,17.9v109.4c0,7.4,3.9,14.2,10.3,17.9l94.8,54.7
				c6.4,3.7,14.2,3.7,20.6,0l94.8-54.7c6.4-3.7,10.3-10.5,10.3-17.9V365.2c0-7.4-3.9-14.2-10.3-17.9L458,292.6
				C451.6,289,443.8,289,437.4,292.6z"/>
			<path class="st2" d="M407.9,2.8l-94.8,54.7c-6.4,3.7-10.3,10.5-10.3,17.8v109.4c0,7.4,3.9,14.2,10.3,17.8l94.8,54.7
				c6.4,3.7,14.2,3.7,20.6,0l94.8-54.7c6.4-3.7,10.3-10.5,10.3-17.8V75.3c0-7.4-3.9-14.2-10.3-17.8L428.5,2.8
				C422.1-0.9,414.3-0.9,407.9,2.8z"/>
			<path class="st1" d="M704.3,151.5l-91.8,53c-6.2,3.6-10,10.2-10,17.3v106c0,7.1,3.8,13.7,10,17.3l91.8,53c6.2,3.6,13.8,3.6,20,0
				l91.8-53c6.2-3.6,10-10.2,10-17.3v-106c0-7.1-3.8-13.7-10-17.3l-91.8-53C718.1,147.9,710.5,147.9,704.3,151.5z"/>
		</g>
	</g>
</g>
</svg>
